# xmcd CD database file
#
# Track frame offsets:
#	150
#	15492
#	33240
#	52797
#	67035
#	84925
#	99650
#	115757
#	132180
#	145662
#
# Disc length: 2096 seconds
#
# Revision: 1
# Processed by: cddbd v1.5.2PL0 Copyright (c) Steve Scherf et al.
# Submitted via: CDex 1.70beta2
#
DISCID=75082e0a
DTITLE=秋本奈緒美 - Split Finger First Lady
DYEAR=1988
DGENRE=J-pop
TTITLE0=Stay in your hart
TTITLE1=朝もやのステーション
TTITLE2=Shock the Baby
TTITLE3=時計じかけの・・・
TTITLE4=42 Floor
TTITLE5=Split Finger First Lady
TTITLE6=Blueのイヤリング
TTITLE7=皮肉な彼氏
TTITLE8=レプリカの記憶
TTITLE9=0のTitle
EXTD=YEAR: 1988
EXTT0=
EXTT1=
EXTT2=
EXTT3=
EXTT4=
EXTT5=
EXTT6=
EXTT7=
EXTT8=
EXTT9=
PLAYORDER=
